<?xml version="1.0" encoding="UTF-8" standalone="no"?>
<!-- Created with Inkscape (http://www.inkscape.org/) -->

<svg
   xmlns:dc="http://purl.org/dc/elements/1.1/"
   xmlns:cc="http://creativecommons.org/ns#"
   xmlns:rdf="http://www.w3.org/1999/02/22-rdf-syntax-ns#"
   xmlns:svg="http://www.w3.org/2000/svg"
   xmlns="http://www.w3.org/2000/svg"
   xmlns:sodipodi="http://sodipodi.sourceforge.net/DTD/sodipodi-0.dtd"
   xmlns:inkscape="http://www.inkscape.org/namespaces/inkscape"
   width="210mm"
   height="297mm"
   viewBox="0 0 744.09448819 1052.3622047"
   id="svg2"
   version="1.1"
   inkscape:version="0.91 r13725"
   sodipodi:docname="RaspPi_B_plus_click_in.svg">
  <defs
     id="defs4" />
  <sodipodi:namedview
     id="base"
     pagecolor="#ffffff"
     bordercolor="#666666"
     borderopacity="1.0"
     inkscape:pageopacity="0.0"
     inkscape:pageshadow="2"
     inkscape:zoom="1.0844507"
     inkscape:cx="62.595222"
     inkscape:cy="690.16581"
     inkscape:document-units="px"
     inkscape:current-layer="layer1-4"
     showgrid="false"
     inkscape:window-width="1855"
     inkscape:window-height="1056"
     inkscape:window-x="65"
     inkscape:window-y="24"
     inkscape:window-maximized="1" />
  <metadata
     id="metadata7">
    <rdf:RDF>
      <cc:Work
         rdf:about="">
        <dc:format>image/svg+xml</dc:format>
        <dc:type
           rdf:resource="http://purl.org/dc/dcmitype/StillImage" />
        <dc:title />
      </cc:Work>
    </rdf:RDF>
  </metadata>
  <g
     inkscape:label="Layer 1"
     inkscape:groupmode="layer"
     id="layer1">
    <g
       transform="translate(-263.54876,-332.14492)"
       id="layer1-4"
       inkscape:label="Layer 1">
      <text
         transform="translate(0,527.95265)"
         sodipodi:linespacing="125%"
         id="text5680"
         y="144.40942"
         x="782"
         style="font-style:normal;font-weight:normal;font-size:20px;line-height:125%;font-family:Sans;letter-spacing:0px;word-spacing:0px;fill:#000000;fill-opacity:1;stroke:none"
         xml:space="preserve"><tspan
           y="144.40942"
           x="782"
           id="tspan5682"
           sodipodi:role="line" /></text>
      <g
         id="g4986"
         transform="translate(81.682582,-11.273354)">
        <path
           style="fill:none;stroke:#ff0000;stroke-width:0.35433069;stroke-miterlimit:4;stroke-dasharray:none;stroke-opacity:1"
           d="m 472.49482,726.28442 a 4.7445183,4.7395983 0 0 1 -4.74451,4.7396 4.7445183,4.7395983 0 0 1 -4.74452,-4.7396 4.7445183,4.7395983 0 0 1 4.74452,-4.73959 4.7445183,4.7395983 0 0 1 4.74451,4.73959 z"
           id="path3755"
           inkscape:connector-curvature="0" />
        <path
           style="fill:none;stroke:#ff0000;stroke-width:0.35433069;stroke-miterlimit:4;stroke-dasharray:none;stroke-opacity:1"
           d="m 472.49482,899.91095 a 4.7445183,4.7395983 0 0 1 -4.74451,4.7396 4.7445183,4.7395983 0 0 1 -4.74452,-4.7396 4.7445183,4.7395983 0 0 1 4.74452,-4.7396 4.7445183,4.7395983 0 0 1 4.74451,4.7396 z"
           id="path3755-9"
           inkscape:connector-curvature="0" />
        <path
           style="fill:none;stroke:#ff0000;stroke-width:0.35433069;stroke-miterlimit:4;stroke-dasharray:none;stroke-opacity:1"
           d="m 266.98121,899.91095 a 4.7445183,4.7395983 0 0 1 -4.74452,4.7396 4.7445183,4.7395983 0 0 1 -4.74451,-4.7396 4.7445183,4.7395983 0 0 1 4.74451,-4.7396 4.7445183,4.7395983 0 0 1 4.74452,4.7396 z"
           id="path3755-6"
           inkscape:connector-curvature="0" />
        <path
           style="fill:none;stroke:#ff0000;stroke-width:0.35433069;stroke-miterlimit:4;stroke-dasharray:none;stroke-opacity:1"
           d="m 266.98121,726.28442 a 4.7445183,4.7395983 0 0 1 -4.74452,4.7396 4.7445183,4.7395983 0 0 1 -4.74451,-4.7396 4.7445183,4.7395983 0 0 1 4.74451,-4.73959 4.7445183,4.7395983 0 0 1 4.74452,4.73959 z"
           id="path3755-8"
           inkscape:connector-curvature="0" />
        <path
           inkscape:connector-curvature="0"
           style="fill:none;stroke:#ff0000;stroke-width:0.37080702;stroke-miterlimit:4;stroke-dasharray:none;stroke-opacity:1"
           d="m 710.47905,702.92369 c 0,-0.215 -0.1474,-0.37649 -0.3437,-0.37649 l -71.36627,0 0,-7.97458 c 0,-0.50569 -0.112,-0.99929 -0.2812,-1.43748 -0.1693,-0.43818 -0.3849,-0.83227 -0.6875,-1.16367 -0.3026,-0.3314 -0.6624,-0.60186 -1.0624,-0.78719 -0.4001,-0.18533 -0.8508,-0.27381 -1.3125,-0.27381 l -28.7484,0 c -0.4617,0 -0.91236,0.0885 -1.31242,0.27381 -0.40007,0.18533 -0.75987,0.45579 -1.06245,0.78719 -0.30257,0.3314 -0.5495,0.72549 -0.71871,1.16367 -0.16921,0.43819 -0.24998,0.93179 -0.24998,1.43748 l 0,7.97458 -265.7777,0 0,-7.97458 c 0,-0.50569 -0.11203,-0.99929 -0.28124,-1.43748 -0.16921,-0.43818 -0.41614,-0.83227 -0.71871,-1.16367 -0.30257,-0.3314 -0.66237,-0.60186 -1.06244,-0.78719 -0.40007,-0.18533 -0.81948,-0.27381 -1.28118,-0.27381 l -28.74844,0 c -0.4617,0 -0.91236,0.0885 -1.31243,0.27381 -0.40006,0.18533 -0.75986,0.45579 -1.06244,0.78719 -0.30257,0.3314 -0.5495,0.72549 -0.71871,1.16367 -0.16921,0.43819 -0.24998,0.93179 -0.24998,1.43748 l 0,7.97458 -53.55959,0 c -0.19629,0 -0.34373,0.16149 -0.34373,0.37649 l 0,220.31068 c 0,0.215 0.14744,0.3765 0.34373,0.3765 l 53.55959,0 0,7.9746 c 0,0.5057 0.11202,0.9993 0.28123,1.4374 0.16921,0.4382 0.41614,0.8323 0.71871,1.1637 0.30257,0.3314 0.66237,0.6019 1.06244,0.7872 0.40007,0.1853 0.81948,0.2738 1.28118,0.2738 l 28.74844,0 c 0.4617,0 0.91236,-0.089 1.31243,-0.2738 0.40007,-0.1853 0.75987,-0.4558 1.06244,-0.7872 0.30257,-0.3314 0.5495,-0.7255 0.71871,-1.1637 0.16921,-0.4381 0.24999,-0.9317 0.24999,-1.4374 l 0,-7.9746 265.7777,0 0,7.9746 c 0,0.5057 0.11202,0.9993 0.28123,1.4374 0.16921,0.4382 0.41614,0.8323 0.71871,1.1637 0.30258,0.3314 0.66238,0.6019 1.06244,0.7872 0.40007,0.1853 0.81948,0.2738 1.28118,0.2738 l 28.7484,0 c 0.4617,0 0.9124,-0.089 1.3125,-0.2738 0.4,-0.1853 0.7598,-0.4558 1.0624,-0.7872 0.3026,-0.3314 0.5495,-0.7255 0.7187,-1.1637 0.1692,-0.4381 0.7549,-1.40899 0.25,-1.4374 l 0,-7.9746 71.36627,0 c 0.1963,0 0.3437,-0.1615 0.3437,-0.3765 z"
           id="rect3808-3-9"
           sodipodi:nodetypes="sscssssssccssccssssssccsscsssscssccssccssccssccssccsscsss" />
      </g>
      <g
         transform="translate(317.73932,561.45143)"
         id="g4911">
        <path
           transform="matrix(0,-1,-1,0,0,0)"
           style="fill:none;stroke:#ff0000;stroke-width:0.35433072;stroke-miterlimit:4;stroke-dasharray:none;stroke-opacity:1"
           d="m -514.53149,83.81929 35.43307,0 0,10.629921 -35.43307,0 z"
           id="rect2989-7-4-6-0-7-5-1"
           inkscape:connector-curvature="0" />
        <path
           transform="matrix(0,-1,-1,0,0,0)"
           style="fill:none;stroke:#ff0000;stroke-width:0.35433072;stroke-miterlimit:4;stroke-dasharray:none;stroke-opacity:1"
           d="m -408.38727,83.81929 35.43307,0 0,10.629921 -35.43307,0 z"
           id="rect2989-7-4-6-0-9-7-8-7"
           inkscape:connector-curvature="0" />
        <path
           transform="matrix(0,-1,-1,0,0,0)"
           style="fill:none;stroke:#ff0000;stroke-width:0.35433072;stroke-miterlimit:4;stroke-dasharray:none;stroke-opacity:1"
           d="m -514.5354,317.556 35.43307,0 0,10.62992 -35.43307,0 z"
           id="rect2989-7-4-6-0-7-5-7-4"
           inkscape:connector-curvature="0" />
        <path
           transform="matrix(0,-1,-1,0,0,0)"
           style="fill:none;stroke:#ff0000;stroke-width:0.35433072;stroke-miterlimit:4;stroke-dasharray:none;stroke-opacity:1"
           d="m -408.39081,317.556 35.43307,0 0,10.62992 -35.43307,0 z"
           id="rect2989-7-4-6-0-9-7-8-3-1"
           inkscape:connector-curvature="0" />
        <path
           sodipodi:nodetypes="sssssssssscssssssss"
           inkscape:connector-curvature="0"
           style="fill:none;stroke:#ff0000;stroke-width:0.36983076;stroke-miterlimit:4;stroke-dasharray:none;stroke-opacity:1"
           d="m -323.89823,365.8673 c -1.57037,0 -3.06549,0.28239 -4.42622,0.8124 -1.36073,0.53002 -2.57995,1.30203 -3.60907,2.24974 -1.02913,0.94771 -1.87591,2.09027 -2.45145,3.34335 -0.57554,1.25308 -0.88525,2.61589 -0.88525,4.06202 l 0,145.29439 c 0,5.8109 5.17545,10.53 11.54223,10.53 3.78743,0 7.02507,-1.7472 9.22698,-4.2494 3.02018,-3.4321 7.30061,-6.2806 22.13111,-6.2806 l 172.75887,0 c 14.83049,0 19.07687,2.8485 22.09706,6.2806 2.2019,2.5023 5.47359,4.2182 9.26102,4.2182 6.36678,0 11.50818,-4.688 11.50818,-10.4988 l 0,-145.29439 c 0,-1.44616 -0.30969,-2.80892 -0.88524,-4.06202 -0.57555,-1.2531 -1.42233,-2.39563 -2.45145,-3.34335 -1.02911,-0.94772 -2.24834,-1.71972 -3.60907,-2.24974 -1.36073,-0.53001 -2.85585,-0.8124 -4.42623,-0.8124 z"
           id="path4170" />
      </g>
      <path
         sodipodi:nodetypes="sscsscsssccssccssssssccsscsssscssccssccssccssccssccsscsss"
         id="rect3808-3"
         d="m 326.16499,691.3915 c 0,-0.215 -0.14743,-0.37649 -0.34373,-0.37649 l -54.81901,0 0,-7.97458 c 0,-0.50569 -0.11203,-0.99929 -0.28124,-1.43748 -0.16921,-0.43818 -0.38487,-0.83227 -0.68746,-1.16367 -0.30257,-0.3314 -0.66237,-0.60186 -1.06244,-0.78719 -0.40007,-0.18533 -0.85072,-0.27381 -1.31243,-0.27381 l -28.74843,0 c -0.4617,0 -0.91237,0.0885 -1.31243,0.27381 -0.40007,0.18533 -0.75986,0.45579 -1.06245,0.78719 -0.30257,0.3314 -0.5495,0.72549 -0.71871,1.16367 -0.16921,0.43819 0.25507,1.41203 -0.24998,1.43748 l 0,7.97458 -282.310613,0 0,-7.97458 c 0,-0.50569 -0.11203,-0.99929 -0.28124,-1.43748 -0.16921,-0.43818 -0.41614,-0.83227 -0.71871,-1.16367 -0.30257,-0.3314 -0.66237,-0.60186 -1.06244,-0.78719 -0.40007,-0.18533 -0.81948,-0.27381 -1.28118,-0.27381 l -28.748441,0 c -0.4617,0 -0.91236,0.0885 -1.31243,0.27381 -0.40006,0.18533 -0.75986,0.45579 -1.06244,0.78719 -0.30257,0.3314 -0.5495,0.72549 -0.71871,1.16367 -0.16921,0.43819 -0.24998,0.93179 -0.24998,1.43748 l 0,7.97458 -53.559586,0 c -0.19629,0 -0.34373,0.16149 -0.34373,0.37649 l 0,220.31064 c 0,0.21499 0.14744,0.37648 0.34373,0.37648 l 53.559586,0 0,7.97459 c 0,0.50569 0.11202,0.99929 0.28123,1.43747 0.16921,0.43819 0.41614,0.83228 0.71871,1.16368 0.30257,0.33139 0.66237,0.60185 1.06244,0.78719 0.40007,0.18533 0.81948,0.2738 1.28118,0.2738 l 28.748441,0 c 0.4617,0 0.91236,-0.0885 1.31243,-0.2738 0.40007,-0.18534 0.75987,-0.4558 1.06244,-0.78719 0.30257,-0.3314 0.5495,-0.72549 0.71871,-1.16368 0.16921,-0.43818 0.24999,-0.93178 0.24999,-1.43747 l 0,-7.97459 282.310613,0 0,7.97459 c 0,0.50569 0.11202,0.99929 0.28123,1.43747 0.16921,0.43819 0.41614,0.83228 0.71871,1.16368 0.30259,0.33139 0.66238,0.60185 1.06244,0.78719 0.40007,0.18533 0.81949,0.2738 1.28119,0.2738 l 28.74843,0 c 0.46171,0 0.91236,-0.0885 1.31243,-0.2738 0.40007,-0.18534 0.75987,-0.4558 1.06244,-0.78719 0.30259,-0.3314 0.5495,-0.72549 0.71871,-1.16368 0.16921,-0.43818 0.75504,-1.41202 0.24999,-1.43747 l 0,-7.97459 54.81901,0 c 0.1963,0 0.34373,-0.16149 0.34373,-0.37648 z"
         style="fill:none;stroke:#ff0000;stroke-width:0.37080702;stroke-miterlimit:4;stroke-dasharray:none;stroke-opacity:1"
         inkscape:connector-curvature="0" />
      <path
         sodipodi:nodetypes="ccssscccscscsssccscssscsccsccscscccscccsssssssssssssssssscccscccscsccsccsccsssssccscssscscccssssscccccccccccccccccccccc"
         inkscape:connector-curvature="0"
         id="path4699"
         d="m 331.76177,928.23335 c -0.46173,0 -0.91241,0.0808 -1.3125,0.25 -0.40009,0.16922 -0.75991,0.41616 -1.0625,0.71875 -0.30259,0.30259 -0.54953,0.66241 -0.71875,1.0625 -0.16922,0.40009 -0.25,0.85077 -0.25,1.3125 l 0,3.75 -10.625,0 0,-3.5625 c -2.86865,0 -5.1875,2.37707 -5.1875,5.28125 0,2.90418 2.31885,5.25 5.1875,5.25 l 0,25.12507 c 0,0.4617 0.0808,0.8811 0.25,1.2812 0.16922,0.4001 0.41616,0.7599 0.71875,1.0625 0.30259,0.3026 0.66241,0.5496 1.0625,0.7188 0.40009,0.1692 0.85077,0.2812 1.3125,0.2812 l 7.28125,0 0,77.74538 -7.28125,0 c -0.46173,0 -0.91241,0.081 -1.3125,0.25 -0.40009,0.1692 -0.75991,0.4161 -1.0625,0.7187 -0.30259,0.3026 -0.54953,0.6624 -0.71875,1.0625 -0.16922,0.4001 -0.25,0.8508 -0.25,1.3125 l 0,21.4375 c 0,0 6.69621,-0.1133 12.3125,0.625 5.61629,0.7383 18.05424,4.646 24.3125,5.4688 6.25827,0.8225 16.40625,0.875 16.40625,0.875 0.9751,0 1.75,0.8325 1.75,1.8437 0,1.0112 -0.7749,1.8125 -1.75,1.8125 0,0 -10.25029,-0.049 -16.53125,-0.875 -6.28097,-0.8257 -18.71622,-4.733 -24.3125,-5.4687 -5.59629,-0.7357 -12.1875,-0.625 -12.1875,-0.625 -2.86865,0 -5.1875,2.377 -5.1875,5.2812 0,2.9042 2.31885,5.25 5.1875,5.25 l 0,-3.5625 10.625,0 0,3.7813 c 0,0.4617 0.0808,0.9124 0.25,1.3125 0.16922,0.4 0.41616,0.7599 0.71875,1.0625 0.30259,0.3025 0.66241,0.5182 1.0625,0.6875 0.40009,0.1692 0.85077,0.2812 1.3125,0.2812 1.28874,0 2.27376,-1.5312 3.5625,-1.5312 1.28875,0 2.24251,1.5312 3.53125,1.5312 1.28875,0 2.27376,-1.5312 3.5625,-1.5312 1.28875,0 2.24251,1.5312 3.53125,1.5312 1.28875,0 2.27376,-1.5312 3.5625,-1.5312 1.28873,0 2.27375,1.5312 3.5625,1.5312 1.28875,0 2.24251,-1.5312 3.53125,-1.5312 1.28875,0 2.27376,1.5312 3.5625,1.5312 l 398.78727,0 c 1.28873,0 2.24251,-1.5312 3.53125,-1.5312 1.28873,0 2.27376,1.5312 3.5625,1.5312 1.28873,0 2.27376,-1.5312 3.5625,-1.5312 1.28873,0 2.24251,1.5312 3.53125,1.5312 1.28873,0 2.27376,-1.5312 3.5625,-1.5312 1.28873,0 2.24251,1.5312 3.53125,1.5312 1.28873,0 2.27376,-1.5312 3.5625,-1.5312 1.28873,0 2.27376,1.5312 3.5625,1.5312 0.46173,0 0.88116,-0.112 1.28125,-0.2812 0.40008,-0.1693 0.75991,-0.385 1.0625,-0.6875 0.30259,-0.3026 0.54953,-0.6625 0.71875,-1.0625 0.16922,-0.4001 0.74253,-1.2928 0.28125,-1.3125 l 0,-3.7813 10.625,0 0,3.5313 c 2.86865,0 5.1875,-2.3459 5.1875,-5.25 0,-2.9042 -2.31885,-5.25 -5.1875,-5.25 0,0 -6.59122,-0.142 -12.1875,0.5937 -5.59628,0.7357 -18.06278,4.6431 -24.34375,5.4688 -6.28097,0.8258 -16.5,0.9062 -16.5,0.9062 -0.9751,0 -1.78125,-0.8325 -1.78125,-1.8437 0,-1.0112 0.80615,-1.8125 1.78125,-1.8125 0,0 10.11672,-0.084 16.375,-0.9063 6.25827,-0.8228 18.72745,-4.6992 24.34375,-5.4375 4.21222,-0.5537 9.00726,-0.6527 11.15625,-0.6562 0.71632,0 1.15625,0.031 1.15625,0.031 l 0,-21.4688 c 0,-0.4617 -0.11203,-0.8811 -0.28125,-1.2812 -0.16922,-0.4001 -0.41616,-0.7599 -0.71875,-1.0625 -0.30259,-0.3026 -0.66242,-0.5496 -1.0625,-0.7188 -0.40009,-0.1692 -0.81952,-0.2812 -1.28125,-0.2812 l -7.28125,0 0,-77.74538 7.28125,0 c 0.46173,0 0.88116,-0.081 1.28125,-0.25 0.40008,-0.1692 0.75991,-0.4161 1.0625,-0.7187 0.30259,-0.3026 0.54953,-0.6624 0.71875,-1.0625 0.16922,-0.4001 0.28125,-0.8508 0.28125,-1.3125 l 0,-25.09382 c 2.86865,0 5.1875,-2.37707 5.1875,-5.28125 0,-2.90418 -2.31885,-5.25 -5.1875,-5.25 l 0,3.53125 -10.625,0 0,-3.71875 c 0,-0.46173 -0.11203,-0.91241 -0.28125,-1.3125 -0.16922,-0.40009 -0.41616,-0.75991 -0.71875,-1.0625 -0.30259,-0.30259 -0.66242,-0.54953 -1.0625,-0.71875 -0.40009,-0.16922 -0.81952,-0.25 -1.28125,-0.25 l -455.59976,0 z m 50.59375,7.09375 35.4375,0 0,10.625 -35.4375,0 z m 301.21912,0 35.4375,0 0,10.625 -35.4375,0 z m -301.21912,137.9954 35.4375,0 0,10.625 -35.4375,0 z m 301.21912,0 35.4375,0 0,10.625 -35.4375,0 z"
         style="fill:none;stroke:#ff0000;stroke-width:0.35433072;stroke-miterlimit:4;stroke-dasharray:none;stroke-opacity:1" />
      <path
         sodipodi:nodetypes="ssssscccscscsssccscssscsscscsscscccscsssssssssssssssssssscssscccscsscscssccsssssccssssscscccsssssscccccccccccccccccccc"
         inkscape:connector-curvature="0"
         id="path3412"
         d="m 333.98794,676.25069 c -0.46173,0 -0.91241,-0.11203 -1.3125,-0.28125 -0.40009,-0.16922 -0.75991,-0.41617 -1.0625,-0.71875 -0.30259,-0.30258 -0.54953,-0.66241 -0.71875,-1.0625 -0.16922,-0.40009 -0.25,-0.81952 -0.25,-1.28125 l 0,-3.78125 -10.625,0 0,3.53125 c -2.86865,0 -5.1875,-2.34582 -5.1875,-5.25 0,-2.90418 2.31885,-5.25 5.1875,-5.25 l 0,-25.125 c 0,-0.46173 0.0808,-0.91241 0.25,-1.3125 0.16922,-0.40009 0.41616,-0.75991 0.71875,-1.0625 0.30259,-0.30259 0.66241,-0.54953 1.0625,-0.71875 0.40009,-0.16922 0.85077,-0.25 1.3125,-0.25 l 7.28125,0 c -0.014,-21.95529 0,-53.31955 0,-70.71415 l -7.28125,0 c -0.46173,0 -0.91241,-0.0808 -1.3125,-0.25 -0.40009,-0.16922 -0.75991,-0.41616 -1.0625,-0.71875 -0.30259,-0.30259 -0.54953,-0.66241 -0.71875,-1.0625 -0.16922,-0.40009 -0.25,-0.85077 -0.25,-1.3125 l 0,-21.4375 c 0,0 6.69621,0.11332 12.3125,-0.625 5.61629,-0.73833 18.05423,-4.64602 24.3125,-5.46875 6.25827,-0.8227 16.40625,-0.875 16.40625,-0.875 0.9751,0 1.75,-0.83255 1.75,-1.84375 0,-1.0112 -0.7749,-1.8125 -1.75,-1.8125 0,0 -10.25029,0.0493 -16.53125,0.875 -6.28097,0.82571 -18.71622,4.73305 -24.3125,5.46875 -5.59629,0.7357 -12.1875,0.625 -12.1875,0.625 -2.86865,0 -5.1875,-2.37707 -5.1875,-5.28125 0,-2.90418 2.31885,-5.25 5.1875,-5.25 l 0,3.53125 10.625,0 0,-3.71875 c 0,-0.46173 0.0808,-0.91241 0.25,-1.3125 0.16922,-0.40009 0.41616,-0.75991 0.71875,-1.0625 0.30259,-0.30259 0.66241,-0.54953 1.0625,-0.71875 0.40009,-0.16922 0.85077,-0.25 1.3125,-0.25 1.28874,0 2.27376,1.53125 3.5625,1.53125 1.28874,0 2.24252,-1.53125 3.53125,-1.53125 1.28875,0 2.27377,1.53125 3.5625,1.53125 1.28874,0 2.24252,-1.53125 3.53125,-1.53125 1.28874,0 2.27377,1.53125 3.5625,1.53125 1.28874,0 2.27376,-1.53125 3.5625,-1.53125 1.28874,0 2.24251,1.53125 3.53125,1.53125 1.28874,0 2.27376,-1.53125 3.5625,-1.53125 l 398.77863,0 c 1.28873,0 2.27376,1.53125 3.5625,1.53125 1.28873,0 2.24251,-1.53125 3.53125,-1.53125 1.28873,0 2.27376,1.53125 3.5625,1.53125 1.28873,0 2.24251,-1.53125 3.53125,-1.53125 1.28873,0 2.27376,1.53125 3.5625,1.53125 1.28873,0 2.27374,-1.53125 3.5625,-1.53125 1.28873,0 2.24251,1.53125 3.53125,1.53125 1.28873,0 2.27376,-1.53125 3.5625,-1.53125 0.46173,0 0.88116,0.0808 1.28125,0.25 0.40009,0.16922 0.75991,0.41616 1.0625,0.71875 0.30259,0.30259 0.54953,0.66241 0.71875,1.0625 0.16922,0.40009 0.74257,1.29297 0.28125,1.3125 l 0,3.75 10.625,0 0,-3.5625 c 2.86865,0 5.1875,2.37707 5.1875,5.28125 0,2.90418 -2.31885,5.25 -5.1875,5.25 0,0 -6.59122,0.1107 -12.1875,-0.625 -5.59628,-0.7357 -18.06278,-4.64304 -24.34375,-5.46875 -6.28097,-0.82571 -16.5,-0.875 -16.5,-0.875 -0.9751,0 -1.75,0.8013 -1.75,1.8125 0,1.0112 0.7749,1.84375 1.75,1.84375 0,0 10.14797,0.0523 16.40625,0.875 6.25827,0.82273 18.6962,4.73042 24.3125,5.46875 4.21222,0.55374 9.03851,0.62149 11.1875,0.625 0.71633,0.001 1.125,0 1.125,0 l 0,21.46875 c 0,0.46173 -0.11203,0.88116 -0.28125,1.28125 -0.16922,0.40009 -0.41616,0.75991 -0.71875,1.0625 -0.30259,0.30259 -0.66241,0.54953 -1.0625,0.71875 -0.40009,0.16922 -0.81952,0.28125 -1.28125,0.28125 l -7.28125,0 0,70.6829 7.28125,0 c 0.46173,0 0.88116,0.11203 1.28125,0.28125 0.40009,0.16922 0.75991,0.41616 1.0625,0.71875 0.30259,0.30259 0.54953,0.66241 0.71875,1.0625 0.16922,0.40009 0.28125,0.81952 0.28125,1.28125 l 0,25.125 c 2.86865,0 5.1875,2.34582 5.1875,5.25 0,2.90418 -2.31885,5.28125 -5.1875,5.28125 l 0,-3.5625 -10.625,0 0,3.78125 c 0,0.46173 -0.11203,0.88116 -0.28125,1.28125 -0.16922,0.40009 -0.41616,0.75992 -0.71875,1.0625 -0.30259,0.30258 -0.66241,0.54953 -1.0625,0.71875 -0.40009,0.16922 -0.81952,0.28125 -1.28125,0.28125 z m 50.59375,-7.09375 35.4375,0 0,-10.625 -35.4375,0 z m 301.27716,0 35.40625,0 0,-10.625 -35.40625,0 z m -301.27716,-130.96415 35.4375,0 0,-10.625 -35.4375,0 z m 301.27716,0 35.40625,0 0,-10.625 -35.40625,0 z"
         style="fill:none;stroke:#ff0000;stroke-width:0.35433072;stroke-miterlimit:4;stroke-dasharray:none;stroke-opacity:1" />
      <g
         id="g3596"
         transform="translate(61.427616,-31.250281)">
        <g
           id="g4918"
           transform="translate(-75.022946,128.12857)">
          <path
             id="rect2989-7-4-6-0-7-5-0-2"
             d="m 413.75159,13.845364 35.43307,0 0,10.629921 -35.43307,0 z"
             style="fill:none;stroke:#ff0000;stroke-width:0.35433072;stroke-miterlimit:4;stroke-dasharray:none;stroke-opacity:1"
             transform="matrix(0,1,1,0,0,0)"
             inkscape:connector-curvature="0" />
          <path
             id="rect2989-7-4-6-0-9-7-8-1-7"
             d="m 519.89514,13.845364 35.43307,0 0,10.629921 -35.43307,0 z"
             style="fill:none;stroke:#ff0000;stroke-width:0.35433072;stroke-miterlimit:4;stroke-dasharray:none;stroke-opacity:1"
             transform="matrix(0,1,1,0,0,0)"
             inkscape:connector-curvature="0" />
          <path
             id="rect2989-7-4-6-0-7-5-7-8-4"
             d="m 413.74768,247.58504 35.43307,0 0,10.62992 -35.43307,0 z"
             style="fill:none;stroke:#ff0000;stroke-width:0.35433072;stroke-miterlimit:4;stroke-dasharray:none;stroke-opacity:1"
             transform="matrix(0,1,1,0,0,0)"
             inkscape:connector-curvature="0" />
          <path
             id="rect2989-7-4-6-0-9-7-8-3-6-9"
             d="m 519.8916,247.58504 35.43307,0 0,10.62992 -35.43307,0 z"
             style="fill:none;stroke:#ff0000;stroke-width:0.35433072;stroke-miterlimit:4;stroke-dasharray:none;stroke-opacity:1"
             transform="matrix(0,1,1,0,0,0)"
             inkscape:connector-curvature="0" />
          <path
             sodipodi:nodetypes="sssssssssssssssssss"
             inkscape:connector-curvature="0"
             id="rect4340-0"
             d="m 18.283302,396.11877 c -6.366777,0 -11.508179,4.71913 -11.508179,10.53 l 0,145.2953 c 0,1.44615 0.3096994,2.84017 0.8852445,4.09326 0.5755452,1.2531 1.4223249,2.3644 2.4514465,3.31211 1.029121,0.94771 2.248344,1.71972 3.609074,2.24974 1.360729,0.53001 2.855856,0.8124 4.426222,0.8124 l 235.78147,0 c 1.57038,0 3.0655,-0.28239 4.42622,-0.8124 1.36073,-0.53002 2.57996,-1.30203 3.60908,-2.24974 1.02911,-0.94771 1.8759,-2.09026 2.45144,-3.34335 0.57555,-1.25309 0.88525,-2.61587 0.88525,-4.06202 l 0,-145.2953 c 0,-5.81087 -5.17545,-10.53 -11.54223,-10.53 -3.78743,0 -7.05911,1.74727 -9.26102,4.2495 -3.02018,3.43209 -7.26656,6.2805 -22.09706,6.2805 l -172.724826,0 c -14.830498,0 -19.110931,-2.84841 -22.131113,-6.2805 -2.201911,-2.50223 -5.473589,-4.2495 -9.261019,-4.2495 z"
             style="fill:none;stroke:#ff0000;stroke-width:0.36983076;stroke-miterlimit:4;stroke-dasharray:none;stroke-opacity:1" />
          <path
             inkscape:connector-curvature="0"
             id="rect3977-3"
             d="m 136.02234,420.07977 c -7.7665,0 -14.0625,4.31978 -14.0625,9.625 l -6.25,0 c -0.9815,0 -1.75,0.79975 -1.75,1.78125 l 0,2.6875 c 0,0.9815 0.7685,1.75 1.75,1.75 l 40.625,0 c 0.9815,0 1.78125,-0.7685 1.78125,-1.75 l 0,-2.6875 c 0,-0.9815 -0.79975,-1.78125 -1.78125,-1.78125 l -6.25,0 c 0,-5.30522 -6.296,-9.625 -14.0625,-9.625 z"
             style="color:#000000;display:inline;overflow:visible;visibility:visible;fill:none;stroke:#ff0000;stroke-width:0.35433072;stroke-linecap:butt;stroke-linejoin:round;stroke-miterlimit:4;stroke-dasharray:none;stroke-dashoffset:0;stroke-opacity:1;marker:none;enable-background:accumulate" />
          <g
             transform="matrix(-1,0,0,-1,542.59093,1366.7644)"
             id="text5769"
             style="font-style:normal;font-weight:normal;font-size:12px;line-height:125%;font-family:Sans;letter-spacing:0px;word-spacing:0px;fill:#000000;fill-opacity:1;stroke:none;stroke-width:0.35433072;stroke-miterlimit:4;stroke-dasharray:none">
            <path
               style="fill:#000000;fill-opacity:1;stroke:none"
               id="path3536"
               d="m 388.74771,918.13934 0,1.1543 c -0.44922,-0.21484 -0.87305,-0.37499 -1.27148,-0.48047 -0.39845,-0.10546 -0.78321,-0.15819 -1.1543,-0.1582 -0.64453,10e-6 -1.14258,0.12501 -1.49414,0.375 -0.34766,0.25001 -0.52149,0.60547 -0.52149,1.0664 0,0.38673 0.11524,0.6797 0.34571,0.87891 0.23437,0.19532 0.67578,0.35352 1.32422,0.47461 l 0.71484,0.14648 c 0.88281,0.16798 1.5332,0.46485 1.95117,0.89063 0.42187,0.42188 0.63281,0.98828 0.63281,1.69922 0,0.84766 -0.28516,1.49023 -0.85546,1.92773 -0.56642,0.4375 -1.39845,0.65625 -2.4961,0.65625 -0.41406,0 -0.85547,-0.0469 -1.32422,-0.14062 -0.46484,-0.0937 -0.94726,-0.23242 -1.44726,-0.41602 l 0,-1.21875 c 0.48047,0.26953 0.95117,0.47266 1.41211,0.60938 0.46093,0.13672 0.91406,0.20508 1.35937,0.20508 0.67578,0 1.19726,-0.13282 1.56446,-0.39844 0.36718,-0.26563 0.55077,-0.64453 0.55078,-1.13672 -10e-6,-0.42969 -0.13282,-0.76562 -0.39844,-1.00781 -0.26172,-0.24219 -0.69336,-0.42383 -1.29492,-0.54493 l -0.72071,-0.14062 c -0.88281,-0.17578 -1.52148,-0.45117 -1.91601,-0.82617 -0.39453,-0.375 -0.5918,-0.89648 -0.5918,-1.56446 0,-0.77343 0.27149,-1.3828 0.81445,-1.82812 0.54688,-0.4453 1.29883,-0.66796 2.25586,-0.66797 0.41016,10e-6 0.82812,0.0371 1.25391,0.11133 0.42578,0.0742 0.86132,0.18555 1.30664,0.33398"
               inkscape:connector-curvature="0" />
            <path
               style="fill:#000000;fill-opacity:1;stroke:none"
               id="path3538"
               d="m 392.30435,918.82489 0,6.80273 1.42969,0 c 1.20703,10e-6 2.08984,-0.27343 2.64844,-0.82031 0.56249,-0.54687 0.84374,-1.41015 0.84375,-2.58984 -10e-6,-1.17187 -0.28126,-2.02929 -0.84375,-2.57227 -0.5586,-0.54686 -1.44141,-0.8203 -2.64844,-0.82031 l -1.42969,0 m -1.18359,-0.97266 2.43164,0 c 1.69531,1e-5 2.93945,0.35353 3.73242,1.06055 0.79296,0.70313 1.18945,1.80469 1.18945,3.30469 0,1.50781 -0.39844,2.61523 -1.19531,3.32226 -0.79688,0.70704 -2.03907,1.06055 -3.72656,1.06055 l -2.43164,0 0,-8.74805"
               inkscape:connector-curvature="0" />
            <path
               style="fill:#000000;fill-opacity:1;stroke:none"
               id="path3540"
               d="m 410.72623,918.52606 0,1.24805 c -0.39845,-0.37109 -0.82423,-0.64843 -1.27735,-0.83203 -0.44922,-0.18359 -0.92774,-0.27539 -1.43554,-0.27539 -1.00001,0 -1.76563,0.30665 -2.29688,0.91992 -0.53125,0.60938 -0.79688,1.49219 -0.79687,2.64844 -1e-5,1.15234 0.26562,2.03515 0.79687,2.64843 0.53125,0.60938 1.29687,0.91407 2.29688,0.91407 0.5078,0 0.98632,-0.0918 1.43554,-0.27539 0.45312,-0.1836 0.8789,-0.46094 1.27735,-0.83204 l 0,1.23633 c -0.41407,0.28125 -0.85353,0.49219 -1.31836,0.63282 -0.46095,0.14062 -0.94923,0.21093 -1.46485,0.21093 -1.32422,0 -2.36719,-0.40429 -3.1289,-1.21289 -0.76172,-0.8125 -1.14258,-1.91992 -1.14258,-3.32226 0,-1.40625 0.38086,-2.51367 1.14258,-3.32227 0.76171,-0.81249 1.80468,-1.21874 3.1289,-1.21875 0.52344,10e-6 1.01562,0.0703 1.47657,0.21094 0.46483,0.13673 0.90038,0.34376 1.30664,0.62109"
               inkscape:connector-curvature="0" />
            <path
               style="fill:#000000;fill-opacity:1;stroke:none"
               id="path3542"
               d="m 415.50162,923.30145 c -0.8711,10e-6 -1.47461,0.0996 -1.81055,0.29883 -0.33594,0.19922 -0.50391,0.53907 -0.50391,1.01953 0,0.38282 0.125,0.6875 0.375,0.91406 0.25391,0.22266 0.59766,0.33399 1.03125,0.33399 0.59766,0 1.07617,-0.21094 1.43555,-0.63281 0.36328,-0.42578 0.54492,-0.99024 0.54492,-1.69336 l 0,-0.24024 -1.07226,0 m 2.15039,-0.44531 0,3.74414 -1.07813,0 0,-0.99609 c -0.2461,0.39844 -0.55274,0.69336 -0.91992,0.88476 -0.36719,0.1875 -0.81641,0.28125 -1.34766,0.28125 -0.67187,0 -1.20703,-0.1875 -1.60546,-0.5625 -0.39454,-0.3789 -0.5918,-0.88476 -0.5918,-1.51758 0,-0.73827 0.24609,-1.29491 0.73828,-1.66992 0.49609,-0.37499 1.23437,-0.56249 2.21484,-0.5625 l 1.51172,0 0,-0.10547 c 0,-0.49609 -0.16406,-0.8789 -0.49218,-1.14843 -0.32423,-0.27344 -0.78126,-0.41015 -1.3711,-0.41016 -0.375,10e-6 -0.74024,0.0449 -1.0957,0.13477 -0.35547,0.0899 -0.69727,0.22461 -1.02539,0.40429 l 0,-0.99609 c 0.39453,-0.15234 0.77734,-0.26562 1.14844,-0.33984 0.37109,-0.0781 0.73241,-0.11719 1.08398,-0.11719 0.94921,0 1.6582,0.2461 2.12695,0.73828 0.46875,0.49219 0.70312,1.23828 0.70313,2.23828"
               inkscape:connector-curvature="0" />
            <path
               style="fill:#000000;fill-opacity:1;stroke:none"
               id="path3544"
               d="m 423.6813,921.04559 c -0.12109,-0.0703 -0.25391,-0.12108 -0.39843,-0.15234 -0.14063,-0.0351 -0.29688,-0.0527 -0.46875,-0.0527 -0.60938,0 -1.07813,0.19922 -1.40625,0.59765 -0.32422,0.39454 -0.48633,0.9629 -0.48633,1.70508 l 0,3.45703 -1.08399,0 0,-6.5625 1.08399,0 0,1.01953 c 0.22656,-0.39843 0.52148,-0.69335 0.88476,-0.88476 0.36328,-0.19531 0.80469,-0.29297 1.32422,-0.29297 0.0742,0 0.15625,0.006 0.2461,0.0176 0.0898,0.008 0.18945,0.0215 0.29883,0.041 l 0.006,1.10742"
               inkscape:connector-curvature="0" />
            <path
               style="fill:#000000;fill-opacity:1;stroke:none"
               id="path3546"
               d="m 428.9313,921.03387 0,-3.55078 1.07813,0 0,9.11719 -1.07813,0 0,-0.98437 c -0.22656,0.39062 -0.51367,0.68164 -0.86132,0.87304 -0.34376,0.1875 -0.75782,0.28125 -1.24219,0.28125 -0.79297,0 -1.43946,-0.3164 -1.93945,-0.94922 -0.4961,-0.63281 -0.74415,-1.46484 -0.74414,-2.49609 -1e-5,-1.03125 0.24804,-1.86328 0.74414,-2.49609 0.49999,-0.63281 1.14648,-0.94922 1.93945,-0.94922 0.48437,0 0.89843,0.0957 1.24219,0.28711 0.34765,0.1875 0.63476,0.47657 0.86132,0.86718 m -3.67382,2.29102 c 0,0.79297 0.1621,1.41602 0.48632,1.86914 0.32813,0.44922 0.77735,0.67383 1.34766,0.67383 0.57031,0 1.01953,-0.22461 1.34766,-0.67383 0.32812,-0.45312 0.49218,-1.07617 0.49218,-1.86914 0,-0.79296 -0.16406,-1.41406 -0.49218,-1.86328 -0.32813,-0.45312 -0.77735,-0.67968 -1.34766,-0.67969 -0.57031,10e-6 -1.01953,0.22657 -1.34766,0.67969 -0.32422,0.44922 -0.48632,1.07032 -0.48632,1.86328"
               inkscape:connector-curvature="0" />
          </g>
        </g>
        <g
           style="clip-rule:evenodd;fill-rule:evenodd;stroke:#ff0000;stroke-width:2.19032145;stroke-miterlimit:4;stroke-dasharray:none;stroke-opacity:1;image-rendering:optimizeQuality;shape-rendering:geometricPrecision;text-rendering:geometricPrecision"
           id="g4260"
           transform="matrix(0,-0.1617711,0.1617711,0,-195.53349,653.27472)">
          <path
             inkscape:connector-curvature="0"
             id="rect4161-0"
             d="m 44.653526,1085.9577 179.728934,0 0,613.4126 -179.728934,0 z"
             style="clip-rule:evenodd;fill:none;fill-rule:evenodd;stroke:#ff0000;stroke-width:2.06774783;stroke-miterlimit:4;stroke-dasharray:none;stroke-opacity:1;image-rendering:optimizeQuality;shape-rendering:geometricPrecision;text-rendering:geometricPrecision" />
          <g
             transform="translate(131.41928,37.782992)"
             id="g4246"
             style="fill:#ffff00;stroke:#ff0000;stroke-width:2.19032145;stroke-miterlimit:4;stroke-dasharray:none;stroke-opacity:1">
            <path
               id="rect4161-0-4"
               transform="matrix(0,6.1815738,-6.1815738,0,1853.6683,2800.0678)"
               d="m -137.50977,271.57812 c -0.2744,0 -0.54159,0.0274 -0.8125,0.041 l -15.07812,0 0,21.06836 0.0391,0 0,5.37109 c 0,8.78105 7.07051,15.84961 15.85156,15.84961 8.78105,0 15.84961,-7.06856 15.84961,-15.84961 l 0,-5.37109 0.0391,0 0,-21.06836 -15.07618,0 c -0.2709,-0.0136 -0.53809,-0.041 -0.8125,-0.041 z"
               style="clip-rule:evenodd;fill:#ffff00;fill-rule:evenodd;stroke:#ff0000;stroke-width:0.35433072;stroke-miterlimit:4;stroke-dasharray:none;stroke-opacity:1;image-rendering:optimizeQuality;shape-rendering:geometricPrecision;text-rendering:geometricPrecision"
               inkscape:connector-curvature="0" />
          </g>
          <g
             transform="translate(3.9991331,9.9187607)"
             id="g3925">
            <path
               id="circle3908"
               d="m 1776.6382,-130.51886 a 27.379019,27.379019 0 0 1 -27.379,27.37902 27.379019,27.379019 0 0 1 -27.3791,-27.37902 27.379019,27.379019 0 0 1 27.3791,-27.37902 27.379019,27.379019 0 0 1 27.379,27.37902 z"
               style="opacity:1;fill:#ffff00;fill-opacity:1;fill-rule:nonzero;stroke:none;stroke-width:0.18000001;stroke-miterlimit:4;stroke-dasharray:none;stroke-opacity:1"
               transform="matrix(0,1,-1,0,0,0)"
               inkscape:connector-curvature="0" />
            <path
               id="circle3908-3"
               d="m 1043.6103,-130.51886 a 27.379019,27.379019 0 0 1 -27.379,27.37902 27.379019,27.379019 0 0 1 -27.379,-27.37902 27.379019,27.379019 0 0 1 27.379,-27.37902 27.379019,27.379019 0 0 1 27.379,27.37902 z"
               style="clip-rule:evenodd;opacity:1;fill:#ffff00;fill-opacity:1;fill-rule:nonzero;stroke:none;stroke-width:0.18000001;stroke-miterlimit:4;stroke-dasharray:none;stroke-opacity:1;image-rendering:optimizeQuality;shape-rendering:geometricPrecision;text-rendering:geometricPrecision"
               transform="matrix(0,1,-1,0,0,0)"
               inkscape:connector-curvature="0" />
          </g>
          <g
             transform="translate(668.34422,67.932628)"
             id="g3958">
            <path
               id="circle3908-3-4"
               d="m 1947.2644,662.62 a 27.379019,27.379019 0 0 1 -27.379,27.37901 27.379019,27.379019 0 0 1 -27.379,-27.37901 27.379019,27.379019 0 0 1 27.379,-27.37902 27.379019,27.379019 0 0 1 27.379,27.37902 z"
               style="clip-rule:evenodd;opacity:1;fill:#ff0000;fill-opacity:1;fill-rule:nonzero;stroke:none;stroke-width:0.18000001;stroke-miterlimit:4;stroke-dasharray:none;stroke-opacity:1;image-rendering:optimizeQuality;shape-rendering:geometricPrecision;text-rendering:geometricPrecision"
               transform="matrix(0,1,-1,0,0,0)"
               inkscape:connector-curvature="0" />
            <path
               id="circle3952"
               d="m 1947.2644,323.12018 a 27.379019,27.379019 0 0 1 -27.379,27.37902 27.379019,27.379019 0 0 1 -27.379,-27.37902 27.379019,27.379019 0 0 1 27.379,-27.37902 27.379019,27.379019 0 0 1 27.379,27.37902 z"
               style="clip-rule:evenodd;opacity:1;fill:#ff0000;fill-opacity:1;fill-rule:nonzero;stroke:none;stroke-width:0.18000001;stroke-miterlimit:4;stroke-dasharray:none;stroke-opacity:1;image-rendering:optimizeQuality;shape-rendering:geometricPrecision;text-rendering:geometricPrecision"
               transform="matrix(0,1,-1,0,0,0)"
               inkscape:connector-curvature="0" />
          </g>
        </g>
      </g>
      <path
         style="fill:none;stroke:#ff0000;stroke-width:0.51044756;stroke-miterlimit:4;stroke-dasharray:none;stroke-opacity:1"
         d="m -101.25395,573.86465 a 6.8313901,6.8313921 0 0 1 -6.83138,6.83138 6.8313901,6.8313921 0 0 1 -6.83141,-6.83138 6.8313901,6.8313921 0 0 1 6.83141,-6.8314 6.8313901,6.8313921 0 0 1 6.83138,6.8314 z"
         id="path3755-8-4-8-9-0"
         inkscape:connector-curvature="0" />
      <path
         style="fill:none;stroke:#ff0000;stroke-width:0.45333934;stroke-miterlimit:4;stroke-dasharray:none;stroke-opacity:1"
         d="m -95.910445,573.86465 a 12.174902,12.174913 0 0 1 -12.174915,12.1749 12.174902,12.174913 0 0 1 -12.17489,-12.1749 12.174902,12.174913 0 0 1 12.17489,-12.17491 12.174902,12.174913 0 0 1 12.174915,12.17491 z"
         id="path3755-8-4-2-8-8-5"
         inkscape:connector-curvature="0" />
      <path
         style="fill:none;stroke:#ff0000;stroke-width:0.51044756;stroke-miterlimit:4;stroke-dasharray:none;stroke-opacity:1"
         d="m -101.25395,653.18429 a 6.8313901,6.8313921 0 0 1 -6.83138,6.83138 6.8313901,6.8313921 0 0 1 -6.83141,-6.83138 6.8313901,6.8313921 0 0 1 6.83141,-6.8314 6.8313901,6.8313921 0 0 1 6.83138,6.8314 z"
         id="path3755-8-4-8-9-0-8"
         inkscape:connector-curvature="0" />
      <path
         style="fill:none;stroke:#ff0000;stroke-width:0.45333934;stroke-miterlimit:4;stroke-dasharray:none;stroke-opacity:1"
         d="m -95.910445,653.18429 a 12.174902,12.174913 0 0 1 -12.174915,12.1749 12.174902,12.174913 0 0 1 -12.17489,-12.1749 12.174902,12.174913 0 0 1 12.17489,-12.17491 12.174902,12.174913 0 0 1 12.174915,12.17491 z"
         id="path3755-8-4-2-8-8-5-7"
         inkscape:connector-curvature="0" />
      <path
         style="fill:none;stroke:#ff0000;stroke-width:0.51044756;stroke-miterlimit:4;stroke-dasharray:none;stroke-opacity:1"
         d="m -101.25395,600.30453 a 6.8313901,6.8313921 0 0 1 -6.83138,6.83138 6.8313901,6.8313921 0 0 1 -6.83141,-6.83138 6.8313901,6.8313921 0 0 1 6.83141,-6.8314 6.8313901,6.8313921 0 0 1 6.83138,6.8314 z"
         id="path3755-8-4-8-9-0-0"
         inkscape:connector-curvature="0" />
      <path
         style="fill:none;stroke:#ff0000;stroke-width:0.45333934;stroke-miterlimit:4;stroke-dasharray:none;stroke-opacity:1"
         d="m -95.910445,600.30453 a 12.174902,12.174913 0 0 1 -12.174915,12.1749 12.174902,12.174913 0 0 1 -12.17489,-12.1749 12.174902,12.174913 0 0 1 12.17489,-12.17491 12.174902,12.174913 0 0 1 12.174915,12.17491 z"
         id="path3755-8-4-2-8-8-5-6"
         inkscape:connector-curvature="0" />
      <path
         style="fill:none;stroke:#ff0000;stroke-width:0.51044756;stroke-miterlimit:4;stroke-dasharray:none;stroke-opacity:1"
         d="m -101.25395,626.74441 a 6.8313901,6.8313921 0 0 1 -6.83138,6.83138 6.8313901,6.8313921 0 0 1 -6.83141,-6.83138 6.8313901,6.8313921 0 0 1 6.83141,-6.8314 6.8313901,6.8313921 0 0 1 6.83138,6.8314 z"
         id="path3755-8-4-8-9-0-7"
         inkscape:connector-curvature="0" />
      <path
         style="fill:none;stroke:#ff0000;stroke-width:0.45333934;stroke-miterlimit:4;stroke-dasharray:none;stroke-opacity:1"
         d="m -95.910445,626.74441 a 12.174902,12.174913 0 0 1 -12.174915,12.1749 12.174902,12.174913 0 0 1 -12.17489,-12.1749 12.174902,12.174913 0 0 1 12.17489,-12.17491 12.174902,12.174913 0 0 1 12.174915,12.17491 z"
         id="path3755-8-4-2-8-8-5-1"
         inkscape:connector-curvature="0" />
      <path
         style="fill:none;stroke:#ff0000;stroke-width:0.51044756;stroke-miterlimit:4;stroke-dasharray:none;stroke-opacity:1"
         d="m -103.91581,974.13885 a 6.8313901,6.8313921 0 0 1 -6.83138,6.83138 6.8313901,6.8313921 0 0 1 -6.83141,-6.83138 6.8313901,6.8313921 0 0 1 6.83141,-6.8314 6.8313901,6.8313921 0 0 1 6.83138,6.8314 z"
         id="path3755-8-4-8-9-0-4"
         inkscape:connector-curvature="0" />
      <path
         style="fill:none;stroke:#ff0000;stroke-width:0.45333934;stroke-miterlimit:4;stroke-dasharray:none;stroke-opacity:1"
         d="m -98.572301,974.13885 a 12.174902,12.174913 0 0 1 -12.174919,12.1749 12.174902,12.174913 0 0 1 -12.17489,-12.1749 12.174902,12.174913 0 0 1 12.17489,-12.17491 12.174902,12.174913 0 0 1 12.174919,12.17491 z"
         id="path3755-8-4-2-8-8-5-5"
         inkscape:connector-curvature="0" />
      <path
         style="fill:none;stroke:#ff0000;stroke-width:0.51044756;stroke-miterlimit:4;stroke-dasharray:none;stroke-opacity:1"
         d="m -103.91581,1053.4585 a 6.8313901,6.8313921 0 0 1 -6.83138,6.8314 6.8313901,6.8313921 0 0 1 -6.83141,-6.8314 6.8313901,6.8313921 0 0 1 6.83141,-6.8314 6.8313901,6.8313921 0 0 1 6.83138,6.8314 z"
         id="path3755-8-4-8-9-0-8-1"
         inkscape:connector-curvature="0" />
      <path
         style="fill:none;stroke:#ff0000;stroke-width:0.45333934;stroke-miterlimit:4;stroke-dasharray:none;stroke-opacity:1"
         d="m -98.572301,1053.4585 a 12.174902,12.174913 0 0 1 -12.174919,12.1749 12.174902,12.174913 0 0 1 -12.17489,-12.1749 12.174902,12.174913 0 0 1 12.17489,-12.1749 12.174902,12.174913 0 0 1 12.174919,12.1749 z"
         id="path3755-8-4-2-8-8-5-7-1"
         inkscape:connector-curvature="0" />
      <path
         style="fill:none;stroke:#ff0000;stroke-width:0.51044756;stroke-miterlimit:4;stroke-dasharray:none;stroke-opacity:1"
         d="m -103.91581,1000.5787 a 6.8313901,6.8313921 0 0 1 -6.83138,6.8314 6.8313901,6.8313921 0 0 1 -6.83141,-6.8314 6.8313901,6.8313921 0 0 1 6.83141,-6.83137 6.8313901,6.8313921 0 0 1 6.83138,6.83137 z"
         id="path3755-8-4-8-9-0-0-3"
         inkscape:connector-curvature="0" />
      <path
         style="fill:none;stroke:#ff0000;stroke-width:0.45333934;stroke-miterlimit:4;stroke-dasharray:none;stroke-opacity:1"
         d="m -98.572301,1000.5787 a 12.174902,12.174913 0 0 1 -12.174919,12.1749 12.174902,12.174913 0 0 1 -12.17489,-12.1749 12.174902,12.174913 0 0 1 12.17489,-12.17488 12.174902,12.174913 0 0 1 12.174919,12.17488 z"
         id="path3755-8-4-2-8-8-5-6-2"
         inkscape:connector-curvature="0" />
      <path
         style="fill:none;stroke:#ff0000;stroke-width:0.51044756;stroke-miterlimit:4;stroke-dasharray:none;stroke-opacity:1"
         d="m -103.91581,1027.0186 a 6.8313901,6.8313921 0 0 1 -6.83138,6.8314 6.8313901,6.8313921 0 0 1 -6.83141,-6.8314 6.8313901,6.8313921 0 0 1 6.83141,-6.8314 6.8313901,6.8313921 0 0 1 6.83138,6.8314 z"
         id="path3755-8-4-8-9-0-7-8"
         inkscape:connector-curvature="0" />
      <path
         style="fill:none;stroke:#ff0000;stroke-width:0.45333934;stroke-miterlimit:4;stroke-dasharray:none;stroke-opacity:1"
         d="m -98.572301,1027.0186 a 12.174902,12.174913 0 0 1 -12.174919,12.1749 12.174902,12.174913 0 0 1 -12.17489,-12.1749 12.174902,12.174913 0 0 1 12.17489,-12.1749 12.174902,12.174913 0 0 1 12.174919,12.1749 z"
         id="path3755-8-4-2-8-8-5-1-4"
         inkscape:connector-curvature="0" />
    </g>
  </g>
</svg>
