<?xml version="1.0" encoding="UTF-8" standalone="no"?>
<!-- Creator: CorelDRAW X5 -->

<svg
   xmlns:dc="http://purl.org/dc/elements/1.1/"
   xmlns:cc="http://creativecommons.org/ns#"
   xmlns:rdf="http://www.w3.org/1999/02/22-rdf-syntax-ns#"
   xmlns:svg="http://www.w3.org/2000/svg"
   xmlns="http://www.w3.org/2000/svg"
   xmlns:sodipodi="http://sodipodi.sourceforge.net/DTD/sodipodi-0.dtd"
   xmlns:inkscape="http://www.inkscape.org/namespaces/inkscape"
   xml:space="preserve"
   width="171.573mm"
   height="213.552mm"
   style="shape-rendering:geometricPrecision; text-rendering:geometricPrecision; image-rendering:optimizeQuality; fill-rule:evenodd; clip-rule:evenodd"
   viewBox="0 0 3758 4677"
   id="svg4136"
   version="1.1"
   inkscape:version="0.91 r13725"
   sodipodi:docname="RaspPi_B_plus.svg"><metadata
     id="metadata4251"><rdf:RDF><cc:Work
         rdf:about=""><dc:format>image/svg+xml</dc:format><dc:type
           rdf:resource="http://purl.org/dc/dcmitype/StillImage" /></cc:Work></rdf:RDF></metadata><sodipodi:namedview
     pagecolor="#ffffff"
     bordercolor="#666666"
     borderopacity="1"
     objecttolerance="10"
     gridtolerance="10"
     guidetolerance="10"
     inkscape:pageopacity="0"
     inkscape:pageshadow="2"
     inkscape:window-width="1920"
     inkscape:window-height="1018"
     id="namedview4249"
     showgrid="false"
     inkscape:zoom="3.1735128"
     inkscape:cx="75.877168"
     inkscape:cy="498.75253"
     inkscape:window-x="-8"
     inkscape:window-y="-8"
     inkscape:window-maximized="1"
     inkscape:current-layer="Ebene_x0020_1" /><defs
     id="defs4138"><style
       type="text/css"
       id="style4140"><![CDATA[
    .str0 {stroke:lime;stroke-width:0.580372}
    .str4 {stroke:blue;stroke-width:1.66884}
    .str1 {stroke:lime;stroke-width:1.66884}
    .str3 {stroke:lime;stroke-width:1.66884;stroke-linejoin:bevel}
    .str2 {stroke:black;stroke-width:0.648264;stroke-linecap:round;stroke-linejoin:round}
    .fil0 {fill:none}
    .fil1 {fill:none;fill-rule:nonzero}
   ]]></style></defs><g
     id="Ebene_x0020_1"><metadata
       id="CorelCorpID_0Corel-Layer" /><polygon
       class="fil0 str1"
       points="2643,2178 2643,2211 2643,2244 2429,2244 2215,2244 2215,2178 "
       id="polygon4149"
       transform="translate(0,65.760989)"
       style="fill:none;stroke:#00ff00;stroke-width:1.66884005" /><rect
       class="fil0 str1"
       x="2215"
       y="809.31952"
       width="429"
       height="66"
       id="rect4151"
       style="fill:none;stroke:#00ff00;stroke-width:1.66884005" /><rect
       class="fil0 str1"
       x="1276"
       y="809.31952"
       width="125"
       height="66"
       id="rect4153"
       style="fill:none;stroke:#00ff00;stroke-width:1.66884005" /><polygon
       class="fil0 str1"
       points="878,1075 944,1075 944,1286 878,1286 880,1185 "
       id="polygon4155" /><path
       class="fil0 str1"
       d="M878 1768l66 0 0 337c-6,0 -11,0 -17,0 -6,0 -11,0 -17,0 -6,0 -11,0 -17,0 -6,0 -11,0 -17,0 0,-28 0,-56 0,-84 0,-28 0,-56 0,-84 0,-28 0,-56 0,-84 0,-28 0,-56 0,-84z"
       id="path4157" /><line
       class="fil1 str2"
       x1="3128"
       y1="1697"
       x2="3117"
       y2="1697"
       id="line4159" /><rect
       class="fil0 str1"
       x="480"
       y="1393"
       width="56"
       height="298"
       rx="14"
       ry="14"
       id="rect4161" /><path
       class="fil0 str4"
       d="m -130.68273,800.44878 108.845288,0 0,65.98776 107.517904,0 0,-65.98776 139.375058,0 0,65.98776 215.03581,0 0,-65.98776 140.70244,0 0,266.64082 69.02384,0 c 9.29167,0 17.25596,5.9989 17.25596,12.9976 l 0,183.9658 c 0,6.9987 -7.96429,12.9976 -17.25596,12.9976 l -69.02384,0 0,481.9106 70.35122,0 c 9.29168,0 17.25596,5.9989 17.25596,12.9976 l 0,310.9424 c 0,6.9987 -7.96428,12.9975 -17.25596,12.9975 l -70.35122,0 0,203.6651 -209.72628,0 0,-65.9878 -290.696554,0 0,65.9878 -211.053666,0 0,-203.6651 -70.35122,0 c -9.29167,0 -17.25596,-5.9988 -17.25596,-12.9975 l 0,-310.9424 c 0,-6.9987 7.96429,-12.9976 17.25596,-12.9976 l 70.35122,0 0,-481.9106 -70.35122,0 c -9.29167,0 -17.25596,-5.9989 -17.25596,-12.9976 l 0,-183.9658 c 0,-6.9987 7.96429,-12.9976 17.25596,-12.9976 l 70.35122,0 z"
       id="path4169"
       inkscape:connector-curvature="0"
       style="fill:none;stroke:#0000ff;stroke-width:1.92252648"
       sodipodi:nodetypes="cccccccccccssssccssssccccccccssssccsssscc" /><path
       class="fil0 str4"
       d="m 948.1186,2700.748 327.9595,0 0,-3.9811 0,-70.3328 c 0,-7.9622 4.9994,-13.2704 9.9988,-13.2704 l 104.987,0 c 5.9993,0 9.9988,6.6352 9.9988,13.2704 l 0,70.3328 0,3.9811 813.8995,0 0,-71.6598 c 0,-9.2893 4.9993,-15.9245 11.9985,-15.9245 l 404.95,0 c 6.9991,0 11.9985,6.6352 11.9985,15.9245 l 0,71.6598 72.991,0 531.0592,0 58.9927,0 0,108.8169 53.9933,0 c 5.9993,0 11.9986,6.6351 11.9986,15.9244 l 0,76.968 c 0,7.9622 -4.9994,15.9244 -11.9986,15.9244 l -53.9933,0 0,139.3387 52.9935,0 c 6.9991,0 12.9984,7.9622 12.9984,17.2514 l 0,181.8038 c 0,9.2892 -5.9993,17.2514 -12.9984,17.2514 l -52.9935,0 0,139.3387 -58.9927,0 -531.0592,0 -72.991,0 0,71.6598 c 0,9.2893 -4.9994,15.9245 -11.9985,15.9245 l -404.95,0 c -6.9992,0 -11.9985,-6.6352 -11.9985,-15.9245 l 0,-71.6598 -813.8995,0 0,3.9811 0,70.3328 c 0,7.9622 -4.9994,13.2704 -9.9988,13.2704 l -104.987,0 c -5.9993,0 -9.9988,-6.6352 -9.9988,-13.2704 l 0,-70.3328 0,-3.9811 -327.9595,0 0,-209.6715 -54.99321,0 c -5.99926,0 -10.99864,-6.6352 -10.99864,-14.5974 l 0,-261.4258 c 0,-7.9622 4.99938,-14.5974 10.99864,-14.5974 l 54.99321,0 0,-210.9985 z"
       id="path4171"
       inkscape:connector-curvature="0"
       style="fill:none;stroke:#0000ff;stroke-width:1.92233479"
       sodipodi:nodetypes="cccsssscccsssscccccssssccsssscccccsssscccssssccccssssccc" /><path
       class="fil0 str4"
       d="m 948.1186,-349.27441 327.9595,0 0,-3.9811 0,-70.33284 c 0,-7.96221 4.9994,-13.27035 9.9988,-13.27035 l 104.987,0 c 5.9993,0 9.9988,6.63517 9.9988,13.27035 l 0,70.33284 0,3.9811 813.8995,0 0,-71.65987 c 0,-9.28925 4.9994,-15.92442 11.9986,-15.92442 l 404.95,0 c 6.9991,0 11.9985,6.63517 11.9985,15.92442 l 0,71.65987 82.9897,0 522.1556,0 58.9927,0 0,210.99852 54.9932,0 c 5.9993,0 10.9987,6.63517 10.9987,14.59738 l 0,261.42583 c 0,7.96221 -4.9994,14.59739 -10.9987,14.59739 l -54.9932,0 0,210.99851 -58.9927,0 -522.1556,0 -82.9897,0 0,71.65988 c 0,9.28924 -4.9994,15.92441 -11.9985,15.92441 l -404.95,0 c -6.9992,0 -11.9986,-6.63517 -11.9986,-15.92441 l 0,-71.65988 -813.8995,0 0,3.98111 0,70.33284 c 0,7.9622 -4.9994,13.27034 -9.9988,13.27034 l -104.987,0 c -5.9993,0 -9.9988,-6.63517 -9.9988,-13.27034 l 0,-70.33284 0,-3.98111 -327.9595,0 0,-140.66568 -52.99346,0 c -6.99913,0 -12.99839,-7.9622 -12.99839,-17.25145 l 0,-181.80375 c 0,-9.28924 5.99926,-17.2514497 12.99839,-17.2514497 l 52.99346,0 0,-139.3386403 -53.99333,0 c -5.99926,0 -11.99852,-6.63518 -11.99852,-15.92442 l 0,-76.96801 c 0,-7.96221 4.99938,-15.92442 11.99852,-15.92442 l 53.99333,0 0,-108.81685 z"
       id="path4173"
       inkscape:connector-curvature="0"
       style="fill:none;stroke:#0000ff;stroke-width:1.92233491"
       sodipodi:nodetypes="cccsssscccsssscccccsssscccccsssscccssssccccssssccssssccc" /><rect
       class="fil0 str1"
       x="3306.0293"
       y="1697"
       width="66"
       height="73"
       id="rect4175"
       style="fill:none;stroke:#00ff00;stroke-width:1.66884005" /><rect
       class="fil0 str1"
       x="3306.0293"
       y="809.2334"
       width="66"
       height="72"
       id="rect4177"
       style="fill:none;stroke:#00ff00;stroke-width:1.66884005" /><path
       class="fil0 str4"
       d="m 3613.4395,809.49611 9.2917,0 201.762,0 0,69.98701 290.6965,0 0,-69.98701 191.1429,0 19.9108,0 76.9881,0 c 5.3095,0 10.6191,3.99926 10.6191,7.99852 l 0,44.99165 c 0,3.99926 -6.5785,4.55401 -10.6191,7.99851 l -76.9881,0 0,265.59361 0,166.969 0,13.9974 73.006,0 c 7.9642,0 13.2738,4.9991 13.2738,9.9982 l 0,53.9899 c 0,5.9989 -6.6369,9.9982 -13.2738,9.9982 l -73.006,0 0,116.9783 0,187.9651 1.3274,0 71.6786,0 c 7.9642,0 14.6012,4.9991 14.6012,10.9979 l 0,50.9906 c 0,5.9989 -6.637,10.9979 -14.6012,10.9979 l -71.6786,0 -1.3274,0 0,102.9809 0,435.7262 -140.7025,0 0,-65.9878 -215.0358,0 0,65.9878 -139.375,0 0,-65.9878 -107.5179,0 0,65.9878 -108.8453,0 0,-458.7219 0,-80.985 -1.3274,0 -71.6786,0 c -7.9643,0 -14.6012,-4.9991 -14.6012,-10.9979 l 0,-50.9906 c 0,-5.9989 6.6369,-10.9979 14.6012,-10.9979 l 71.6786,0 1.3274,0 0,-70.9869 0,-232.9567 -73.006,0 c -7.9643,0 -13.2738,-4.9991 -13.2738,-9.9982 l 0,-53.9899 c 0,-5.9989 6.6369,-9.9982 13.2738,-9.9982 l 73.006,0 0,-13.9974 0,-232.9567 0,-188.60795 -73.006,0 c -7.9643,0 -13.2738,-4.99907 -13.2738,-9.99814 l 0,-50.99054 c 0,-5.99888 6.6369,-9.99814 13.2738,-9.99814 l 73.006,0 z"
       id="path4183"
       inkscape:connector-curvature="0"
       style="fill:none;stroke:#0000ff;stroke-width:1.92252636"
       sodipodi:nodetypes="ccccccccssssccccssssccccssssccccccccccccccccssssccccssssccccsssscc" /><rect
       class="fil0 str1"
       x="3306.0293"
       y="1317"
       width="66"
       height="73"
       id="rect4185"
       style="fill:none;stroke:#00ff00;stroke-width:1.66884005" /><rect
       class="fil0 str1"
       x="1276"
       y="2242.761"
       width="125"
       height="66"
       id="rect4187"
       style="fill:none;stroke:#00ff00;stroke-width:1.66884005" /><path
       class="fil0 str4"
       d="m 855.98879,725.24079 c 647.00001,68 1784.05561,67 2535.05561,0 128,507.00001 129.0112,1149.42521 0.011,1664.42521 -680,-70 -1819.0556,-58 -2535.0556,0 -29,-195 -48,-454.666 -56,-646.666 47,-41 78,-112 78,-192 0,-81 -32,-153 -80,-193 7,-191 25.98879,-445.75921 57.98879,-632.75921 z"
       id="path4191"
       inkscape:connector-curvature="0"
       style="fill:none;stroke:#0000ff;stroke-width:1.66884005"
       sodipodi:nodetypes="cccccsccc" /><g
       id="g4193"><path
         class="fil1 str1"
         d="M1052 2094c0,-15 -13,-27 -28,-27 -15,0 -27,12 -27,27 0,15 12,28 27,28 15,0 28,-13 28,-28z"
         id="path4195" /></g><g
       id="g4197"><path
         class="fil1 str1"
         d="M1052 1021c0,-15 -13,-27 -28,-27 -15,0 -27,12 -27,27 0,15 12,28 27,28 15,0 28,-13 28,-28z"
         id="path4199" /></g><g
       id="g4201"><path
         class="fil1 str1"
         d="M2322 2094c0,-15 -13,-27 -28,-27 -15,0 -27,12 -27,27 0,15 12,28 27,28 15,0 28,-13 28,-28z"
         id="path4203" /></g><g
       id="g4205"><path
         class="fil1 str1"
         d="M2322 1021c0,-15 -13,-27 -28,-27 -15,0 -27,12 -27,27 0,15 12,28 27,28 15,0 28,-13 28,-28z"
         id="path4207" /></g><polygon
       class="fil0 str1"
       points="2643,4562 2643,4595 2429,4595 2215,4595 2215,4529 2643,4529 "
       id="polygon4213"
       transform="translate(0,504.57334)"
       style="fill:none;stroke:#00ff00;stroke-width:1.66884005" /><rect
       class="fil0 str1"
       x="2215"
       y="3599.0457"
       width="429"
       height="66"
       id="rect4215"
       style="fill:none;stroke:#00ff00;stroke-width:1.66884005" /><rect
       class="fil0 str1"
       x="1276"
       y="3599.0457"
       width="125"
       height="66"
       id="rect4217"
       style="fill:none;stroke:#00ff00;stroke-width:1.66884005" /><polygon
       class="fil0 str1"
       points="944,3427 944,3638 878,3638 880,3536 878,3427 "
       id="polygon4219"
       transform="translate(0,438.83594)"
       style="fill:none;stroke:#00ff00;stroke-width:1.66884005" /><path
       class="fil0 str1"
       d="m 878,4558.8359 66,0 0,337 c -6,0 -11,0 -17,0 -6,0 -11,0 -17,0 -6,0 -11,0 -17,0 -6,0 -11,0 -17,0 0,-28 0,-56 0,-84 0,-28 0,-56 0,-84 0,-28 0,-56 0,-84 0,-28 0,-56 0,-84 z"
       id="path4221"
       inkscape:connector-curvature="0"
       style="fill:none;stroke:#00ff00;stroke-width:1.66884005" /><rect
       class="fil0 str1"
       x="3306.0293"
       y="4487.8359"
       width="66"
       height="73"
       id="rect4223"
       style="fill:none;stroke:#00ff00;stroke-width:1.66884005" /><rect
       class="fil0 str1"
       x="3306.0293"
       y="3599.0457"
       width="66"
       height="72"
       id="rect4225"
       style="fill:none;stroke:#00ff00;stroke-width:1.66884005" /><rect
       class="fil0 str1"
       x="3306.0293"
       y="4107.8359"
       width="66"
       height="73"
       id="rect4227"
       style="fill:none;stroke:#00ff00;stroke-width:1.66884005" /><rect
       class="fil0 str1"
       x="1276"
       y="5033.5732"
       width="125"
       height="66"
       id="rect4229"
       style="fill:none;stroke:#00ff00;stroke-width:1.66884005" /><path
       class="fil0 str4"
       d="m 856,3516.1483 c 647,68 1784.0556,67 2535.0556,0 128,507 129,1149.4252 0,1664.4252 -680,-70 -1819.0556,-58 -2535.0556,0 -29,-195 -48,-454.7376 -56,-646.7376 47,-41 78,-112 78,-192 0,-81 -32,-153 -80,-193 7,-191 26,-445.6876 58,-632.6876 z"
       id="path4231"
       inkscape:connector-curvature="0"
       style="fill:none;stroke:#0000ff;stroke-width:1.66884005"
       sodipodi:nodetypes="cccccscc" /><g
       id="g4233"
       transform="translate(0,438.83594)"><path
         class="fil1 str1"
         d="m 1052,4445 c 0,-15 -13,-27 -28,-27 -15,0 -27,12 -27,27 0,15 12,28 27,28 15,0 28,-13 28,-28 z"
         id="path4235"
         inkscape:connector-curvature="0"
         style="fill:none;fill-rule:nonzero;stroke:#00ff00;stroke-width:1.66884005" /></g><g
       id="g4237"
       transform="translate(0,438.83594)"><path
         class="fil1 str1"
         d="m 1052,3372 c 0,-15 -13,-27 -28,-27 -15,0 -27,12 -27,27 0,15 12,28 27,28 15,0 28,-13 28,-28 z"
         id="path4239"
         inkscape:connector-curvature="0"
         style="fill:none;fill-rule:nonzero;stroke:#00ff00;stroke-width:1.66884005" /></g><g
       id="g4241"
       transform="translate(0,438.83594)"><path
         class="fil1 str1"
         d="m 2322,4445 c 0,-15 -13,-27 -28,-27 -15,0 -27,12 -27,27 0,15 12,28 27,28 15,0 28,-13 28,-28 z"
         id="path4243"
         inkscape:connector-curvature="0"
         style="fill:none;fill-rule:nonzero;stroke:#00ff00;stroke-width:1.66884005" /></g><g
       id="g4245"
       transform="translate(0,438.83594)"><path
         class="fil1 str1"
         d="m 2322,3372 c 0,-15 -13,-27 -28,-27 -15,0 -27,12 -27,27 0,15 12,28 27,28 15,0 28,-13 28,-28 z"
         id="path4247"
         inkscape:connector-curvature="0"
         style="fill:none;fill-rule:nonzero;stroke:#00ff00;stroke-width:1.66884005" /></g><g
       id="g4260"
       transform="translate(0,-35.866549)"><rect
         id="rect4161-0"
         ry="0"
         rx="0"
         height="633.3764"
         width="195.31216"
         y="1086.019"
         x="44.714813"
         class="fil0 str1"
         style="clip-rule:evenodd;fill:none;fill-rule:evenodd;stroke:#00ff00;stroke-width:1.81676698;stroke-miterlimit:4;stroke-dasharray:none;image-rendering:optimizeQuality;shape-rendering:geometricPrecision;text-rendering:geometricPrecision" /><g
         transform="translate(131.41928,37.782992)"
         id="g4246"><rect
           style="clip-rule:evenodd;fill:none;fill-rule:evenodd;stroke:#00ff00;stroke-width:1.1789676;stroke-miterlimit:4;stroke-dasharray:none;image-rendering:optimizeQuality;shape-rendering:geometricPrecision;text-rendering:geometricPrecision"
           class="fil0 str1"
           x="44.395912"
           y="1851.8132"
           width="130.24031"
           height="196.44931"
           rx="0"
           ry="0"
           id="rect4161-0-4" /><rect
           style="clip-rule:evenodd;fill:none;fill-rule:evenodd;stroke:#00ff00;stroke-width:1.66902494;stroke-miterlimit:4;stroke-dasharray:none;image-rendering:optimizeQuality;shape-rendering:geometricPrecision;text-rendering:geometricPrecision"
           class="fil0 str1"
           x="-86.778343"
           y="1852.0582"
           width="261.66891"
           height="195.95924"
           rx="0"
           ry="97.979622"
           id="rect4161-0-4-1" /></g></g></g></svg>