<?xml version="1.0" encoding="UTF-8"?>
<!DOCTYPE svg PUBLIC "-//W3C//DTD SVG 1.1//EN" "http://www.w3.org/Graphics/SVG/1.1/DTD/svg11.dtd">
<!-- Creator: CorelDRAW X5 -->
<svg xmlns="http://www.w3.org/2000/svg" xml:space="preserve" width="171.573mm" height="213.552mm" style="shape-rendering:geometricPrecision; text-rendering:geometricPrecision; image-rendering:optimizeQuality; fill-rule:evenodd; clip-rule:evenodd"
viewBox="0 0 3758 4677"
 xmlns:xlink="http://www.w3.org/1999/xlink">
 <defs>
  <style type="text/css">
   <![CDATA[
    .str0 {stroke:lime;stroke-width:0.580372}
    .str4 {stroke:blue;stroke-width:1.66884}
    .str1 {stroke:lime;stroke-width:1.66884}
    .str3 {stroke:lime;stroke-width:1.66884;stroke-linejoin:bevel}
    .str2 {stroke:black;stroke-width:0.648264;stroke-linecap:round;stroke-linejoin:round}
    .fil0 {fill:none}
    .fil1 {fill:none;fill-rule:nonzero}
   ]]>
  </style>
 </defs>
 <g id="Ebene_x0020_1">
  <metadata id="CorelCorpID_0Corel-Layer"/>
  <path id="path3611" class="fil0 str0" d="M1471 2726c0,12 10,22 22,22l303 0c12,0 22,-10 22,-22l0 -81c0,-6 -2,-11 -6,-15l-22 -22c-4,-4 -10,-6 -15,-6l-260 0c-6,0 -11,2 -15,6l-22 22c-4,4 -6,10 -6,15l0 81 0 0z" inkscape:connector-curvature="0"/>
  <rect class="fil0 str1" transform="matrix(-2.64845E-014 -1 -1 2.64845E-014 1966.59 2127.96)" width="416" height="66" rx="15" ry="15"/>
  <rect class="fil0 str1" transform="matrix(-2.64845E-014 -1.73377 -0.87917 4.03697E-014 1943.33 2276.77)" width="86" height="21"/>
  <polygon class="fil0 str1" points="2215,2178 2643,2178 2643,2211 2643,2244 2429,2244 2215,2244 "/>
  <rect class="fil0 str1" x="2215" y="875" width="429" height="66"/>
  <rect class="fil0 str1" x="1276" y="875" width="125" height="66"/>
  <polygon class="fil0 str1" points="878,1075 944,1075 944,1286 878,1286 880,1185 "/>
  <path class="fil0 str1" d="M878 1768l66 0 0 337c-6,0 -11,0 -17,0 -6,0 -11,0 -17,0 -6,0 -11,0 -17,0 -6,0 -11,0 -17,0 0,-28 0,-56 0,-84 0,-28 0,-56 0,-84 0,-28 0,-56 0,-84 0,-28 0,-56 0,-84z"/>
  <line class="fil1 str2" x1="3128" y1="1697" x2="3117" y2= "1697" />
  <rect class="fil0 str1" x="480" y="1393" width="56" height="298" rx="14" ry="14"/>
  <rect class="fil0 str1" x="1061" y="220" width="1192" height="114" rx="13" ry="13"/>
  <polygon class="fil0 str3" points="2123,2742 2139,2740 2153,2736 2166,2729 2177,2719 2187,2708 2194,2695 2198,2681 2200,2665 2198,2650 2194,2635 2187,2622 2177,2611 2166,2602 2153,2595 2139,2590 2123,2589 2108,2590 2093,2595 2080,2602 2069,2611 2060,2622 2053,2635 2048,2650 2047,2665 2048,2681 2053,2695 2060,2708 2069,2719 2080,2729 2093,2736 2108,2740 2123,2742 "/>
  <rect class="fil0 str1" x="1054" y="2536" width="250" height="194" rx="34" ry="34"/>
  <path class="fil0 str4" d="M67 866l82 0 0 66 81 0 0 -66 105 0 0 66 162 0 0 -66 106 0 0 201 52 0c7,0 13,6 13,13l0 184c0,7 -6,13 -13,13l-52 0 0 482 53 0c7,0 13,6 13,13l0 311c0,7 -6,13 -13,13l-53 0 0 138 -158 0 0 -66 -219 0 0 66 -159 0 0 -138 -53 0c-7,0 -13,-6 -13,-13l0 -311c0,-7 6,-13 13,-13l53 0 0 -482 -53 0c-7,0 -13,-6 -13,-13l0 -184c0,-7 6,-13 13,-13l53 0 0 -201z"/>
  <path class="fil0 str4" d="M948 2460l328 0c0,-1 0,-2 0,-3l0 -53c0,-6 5,-10 10,-10l105 0c6,0 10,5 10,10l0 53c0,1 0,2 0,3l814 0 0 -54c0,-7 5,-12 12,-12l405 0c7,0 12,5 12,12l0 54 73 0 93 0 59 0 0 82 54 0c6,0 12,5 12,12l0 58c0,6 -5,12 -12,12l-54 0 0 105 53 0c7,0 13,6 13,13l0 137c0,7 -6,13 -13,13l-53 0 0 105 -59 0 -93 0 -73 0 0 54c0,7 -5,12 -12,12l-405 0c-7,0 -12,-5 -12,-12l0 -54 -814 0c0,1 0,2 0,3l0 53c0,6 -5,10 -10,10l-105 0c-6,0 -10,-5 -10,-10l0 -53c0,-1 0,-2 0,-3l-328 0 0 -158 -55 0c-6,0 -11,-5 -11,-11l0 -197c0,-6 5,-11 11,-11l55 0 0 -159z"/>
  <path class="fil0 str4" d="M948 67l328 0c0,-1 0,-2 0,-3l0 -53c0,-6 5,-10 10,-10l105 0c6,0 10,5 10,10l0 53c0,1 0,2 0,3l814 0 0 -54c0,-7 5,-12 12,-12l405 0c7,0 12,5 12,12l0 54 83 0 84 0 59 0 0 159 55 0c6,0 11,5 11,11l0 197c0,6 -5,11 -11,11l-55 0 0 159 -59 0 -84 0 -83 0 0 54c0,7 -5,12 -12,12l-405 0c-7,0 -12,-5 -12,-12l0 -54 -814 0c0,1 0,2 0,3l0 53c0,6 -5,10 -10,10l-105 0c-6,0 -10,-5 -10,-10l0 -53c0,-1 0,-2 0,-3l-328 0 0 -106 -53 0c-7,0 -13,-6 -13,-13l0 -137c0,-7 6,-13 13,-13l53 0 0 -105 -54 0c-6,0 -12,-5 -12,-12l0 -58c0,-6 5,-12 12,-12l54 0 0 -82z"/>
  <rect class="fil0 str1" x="2868" y="1697" width="66" height="73"/>
  <rect class="fil0 str1" x="2868" y="875" width="66" height="72"/>
  <rect class="fil0 str1" x="3320" y="993" width="320" height="301" rx="10" ry="10"/>
  <rect class="fil0 str1" x="3290" y="1777" width="313" height="350"/>
  <path class="fil0 str4" d="M3154 875l7 0 152 0 0 70 219 0 0 -70 144 0 15 0 58 0c4,0 8,4 8,8l0 45c0,4 -4,8 -8,8l-58 0 0 200 0 167 0 14 55 0c6,0 10,5 10,10l0 54c0,6 -5,10 -10,10l-55 0 0 117 0 188c0,0 1,0 1,0l54 0c6,0 11,5 11,11l0 51c0,6 -5,11 -11,11l-54 0c0,0 -1,0 -1,0l0 103 0 370 -106 0 0 -66 -162 0 0 66 -105 0 0 -66 -81 0 0 66 -82 0 0 -393 0 -81c0,0 -1,0 -1,0l-54 0c-6,0 -11,-5 -11,-11l0 -51c0,-6 5,-11 11,-11l54 0c0,0 1,0 1,0l0 -71 0 -233 -55 0c-6,0 -10,-5 -10,-10l0 -54c0,-6 5,-10 10,-10l55 0 0 -14 0 -233 0 -123 -55 0c-6,0 -10,-5 -10,-10l0 -51c0,-6 5,-10 10,-10l55 0z"/>
  <rect class="fil0 str1" x="2868" y="1317" width="66" height="73"/>
  <rect class="fil0 str1" x="1276" y="2177" width="125" height="66"/>
  <rect class="fil0 str1" x="3320" y="1390" width="320" height="301" rx="10" ry="10"/>
  <path class="fil0 str4" d="M856 791c647,68 1346,67 2097,0 128,507 129,1018 0,1533 -680,-70 -1381,-58 -2097,0 -29,-195 -48,-389 -56,-581 47,-41 78,-112 78,-192 0,-81 -32,-153 -80,-193 7,-191 26,-380 58,-567z"/>
  <g>
   <path class="fil1 str1" d="M1052 2094c0,-15 -13,-27 -28,-27 -15,0 -27,12 -27,27 0,15 12,28 27,28 15,0 28,-13 28,-28z"/>
  </g>
  <g>
   <path class="fil1 str1" d="M1052 1021c0,-15 -13,-27 -28,-27 -15,0 -27,12 -27,27 0,15 12,28 27,28 15,0 28,-13 28,-28z"/>
  </g>
  <g>
   <path class="fil1 str1" d="M2322 2094c0,-15 -13,-27 -28,-27 -15,0 -27,12 -27,27 0,15 12,28 27,28 15,0 28,-13 28,-28z"/>
  </g>
  <g>
   <path class="fil1 str1" d="M2322 1021c0,-15 -13,-27 -28,-27 -15,0 -27,12 -27,27 0,15 12,28 27,28 15,0 28,-13 28,-28z"/>
  </g>
  <rect class="fil0 str1" transform="matrix(-2.64845E-014 -1 -1 2.64845E-014 1966.59 4479.36)" width="416" height="66" rx="15" ry="15"/>
  <rect class="fil0 str1" transform="matrix(-2.64845E-014 -1.73384 -0.87917 4.03715E-014 1943.33 4628.17)" width="86" height="21"/>
  <polygon class="fil0 str1" points="2215,4529 2643,4529 2643,4562 2643,4595 2429,4595 2215,4595 "/>
  <rect class="fil0 str1" x="2215" y="3226" width="429" height="66"/>
  <rect class="fil0 str1" x="1276" y="3226" width="125" height="66"/>
  <polygon class="fil0 str1" points="878,3427 944,3427 944,3638 878,3638 880,3536 "/>
  <path class="fil0 str1" d="M878 4120l66 0 0 337c-6,0 -11,0 -17,0 -6,0 -11,0 -17,0 -6,0 -11,0 -17,0 -6,0 -11,0 -17,0 0,-28 0,-56 0,-84 0,-28 0,-56 0,-84 0,-28 0,-56 0,-84 0,-28 0,-56 0,-84z"/>
  <rect class="fil0 str1" x="2868" y="4049" width="66" height="73"/>
  <rect class="fil0 str1" x="2868" y="3226" width="66" height="72"/>
  <rect class="fil0 str1" x="2868" y="3669" width="66" height="73"/>
  <rect class="fil0 str1" x="1276" y="4529" width="125" height="66"/>
  <path class="fil0 str4" d="M856 3143c647,68 1346,67 2097,0 128,507 129,1018 0,1533 -680,-70 -1381,-58 -2097,0 -29,-195 -48,-389 -56,-581 47,-41 78,-112 78,-192 0,-81 -32,-153 -80,-193 7,-191 26,-380 58,-567z"/>
  <g>
   <path class="fil1 str1" d="M1052 4445c0,-15 -13,-27 -28,-27 -15,0 -27,12 -27,27 0,15 12,28 27,28 15,0 28,-13 28,-28z"/>
  </g>
  <g>
   <path class="fil1 str1" d="M1052 3372c0,-15 -13,-27 -28,-27 -15,0 -27,12 -27,27 0,15 12,28 27,28 15,0 28,-13 28,-28z"/>
  </g>
  <g>
   <path class="fil1 str1" d="M2322 4445c0,-15 -13,-27 -28,-27 -15,0 -27,12 -27,27 0,15 12,28 27,28 15,0 28,-13 28,-28z"/>
  </g>
  <g>
   <path class="fil1 str1" d="M2322 3372c0,-15 -13,-27 -28,-27 -15,0 -27,12 -27,27 0,15 12,28 27,28 15,0 28,-13 28,-28z"/>
  </g>
 </g>
</svg>
